<?xml version="1.0" encoding="UTF-8" standalone="no"?>
<!DOCTYPE svg PUBLIC "-//W3C//DTD SVG 1.1//EN" "http://www.w3.org/Graphics/SVG/1.1/DTD/svg11.dtd">
<svg xmlns="http://www.w3.org/2000/svg" version="1.1" viewBox="0.00 0.00 355.00 142.00">
<g stroke-width="2.00" fill="none" stroke-linecap="butt">
<path stroke="#d2d3d4" vector-effect="non-scaling-stroke" d="
  M 347.36 19.28
  A 0.38 0.38 0.0 0 0 346.98 18.90
  L 7.94 18.90
  A 0.38 0.38 0.0 0 0 7.56 19.28
  L 7.56 20.10
  A 0.38 0.38 0.0 0 0 7.94 20.48
  L 346.98 20.48
  A 0.38 0.38 0.0 0 0 347.36 20.10
  L 347.36 19.28"
/>
<path stroke="#e6e6e6" vector-effect="non-scaling-stroke" d="
  M 71.99 92.73
  C 78.49 94.99 86.61 93.35 91.46 88.10
  C 100.71 78.09 98.40 56.35 83.99 52.52
  C 64.97 47.48 55.32 67.10 61.45 82.56
  Q 64.44 90.11 71.99 92.73"
/>
<path stroke="#e6e6e6" vector-effect="non-scaling-stroke" d="
  M 175.58 62.44
  C 171.24 52.19 159.30 48.89 149.92 54.10
  C 134.95 62.40 137.32 92.66 157.02 93.63
  Q 168.88 94.21 174.45 84.77
  C 178.21 78.41 178.45 69.20 175.58 62.44"
/>
<path stroke="#e6e6e6" vector-effect="non-scaling-stroke" d="
  M 129.44 76.72
  L 129.39 87.39
  A 0.93 0.93 0.0 0 1 128.69 88.29
  Q 121.19 90.21 115.07 87.61
  C 105.52 83.56 104.10 68.82 110.46 61.50
  C 115.58 55.59 124.70 55.43 131.66 57.98
  Q 132.01 58.11 132.12 57.76
  L 133.28 54.07
  Q 133.39 53.71 133.03 53.60
  C 120.80 49.81 106.82 52.62 102.32 65.79
  C 100.84 70.11 100.91 76.00 102.26 80.25
  C 106.72 94.38 121.74 95.13 134.02 91.38
  Q 134.51 91.23 134.51 90.71
  L 134.54 72.34
  Q 134.54 71.75 133.96 71.75
  L 121.78 71.74
  Q 121.31 71.74 121.30 72.22
  L 121.26 75.76
  Q 121.26 76.00 121.51 76.00
  L 128.72 76.00
  Q 129.44 76.00 129.44 76.72"
/>
<path stroke="#e6e6e6" vector-effect="non-scaling-stroke" d="
  M 283.94 73.33
  C 294.63 68.57 293.07 53.70 281.02 52.40
  Q 273.72 51.62 266.50 52.75
  Q 266.03 52.82 266.04 53.29
  L 266.12 92.81
  Q 266.12 92.99 266.31 92.99
  L 271.17 93.00
  Q 271.38 93.00 271.38 92.80
  L 271.32 76.07
  Q 271.32 75.54 271.85 75.50
  C 277.77 75.05 282.85 75.42 284.21 82.43
  Q 285.26 87.87 286.86 92.71
  Q 286.89 92.82 287.01 92.86
  Q 287.89 93.11 292.20 92.97
  Q 292.50 92.96 292.39 92.68
  Q 290.55 87.88 289.53 82.52
  C 288.86 79.01 287.28 75.52 283.93 73.88
  A 0.31 0.30 46.3 0 1 283.94 73.33"
/>
<path stroke="#e6e6e6" vector-effect="non-scaling-stroke" d="
  M 41.62 88.55
  A 0.41 0.41 0.0 0 1 41.21 88.14
  L 41.22 52.76
  A 0.41 0.41 0.0 0 0 40.80 52.35
  L 36.30 52.41
  A 0.41 0.41 0.0 0 0 35.90 52.82
  L 35.88 92.59
  A 0.41 0.41 0.0 0 0 36.29 93.00
  L 58.18 93.00
  A 0.41 0.41 0.0 0 0 58.59 92.59
  L 58.60 88.96
  A 0.41 0.41 0.0 0 0 58.19 88.55
  L 41.62 88.55"
/>
<path stroke="#e6e6e6" vector-effect="non-scaling-stroke" d="
  M 221.85 68.57
  A 0.92 0.92 0.0 0 1 220.93 69.45
  L 202.96 69.41
  A 0.71 0.71 0.0 0 1 202.25 68.71
  L 202.07 52.85
  Q 202.07 52.38 201.60 52.38
  L 197.37 52.37
  Q 196.87 52.37 196.87 52.88
  L 196.88 92.45
  Q 196.88 93.03 197.45 93.03
  L 201.56 93.02
  Q 202.15 93.02 202.15 92.44
  L 202.10 74.70
  A 0.70 0.69 -0.0 0 1 202.80 74.01
  L 220.76 73.99
  Q 222.02 73.99 222.02 75.26
  L 221.95 92.22
  Q 221.95 92.99 222.72 93.00
  L 226.27 93.04
  Q 227.15 93.05 227.18 92.18
  C 227.64 79.35 227.31 66.36 226.97 53.55
  Q 226.93 52.29 225.67 52.30
  L 223.16 52.32
  Q 221.88 52.33 221.92 53.60
  Q 222.18 61.39 221.85 68.57"
/>
<path stroke="#e6e6e6" vector-effect="non-scaling-stroke" d="
  M 241.50 57.51
  A 0.66 0.66 0.0 0 1 242.16 56.84
  L 257.73 56.76
  A 0.66 0.66 0.0 0 0 258.38 56.10
  L 258.36 53.04
  A 0.66 0.66 0.0 0 0 257.70 52.39
  L 236.95 52.37
  A 0.66 0.66 0.0 0 0 236.29 53.03
  L 236.26 92.33
  A 0.66 0.66 0.0 0 0 236.92 92.99
  L 258.49 93.01
  A 0.66 0.66 0.0 0 0 259.15 92.34
  L 259.10 89.20
  A 0.66 0.66 0.0 0 0 258.44 88.55
  L 242.29 88.49
  A 0.66 0.66 0.0 0 1 241.63 87.83
  L 241.61 74.63
  A 0.66 0.66 0.0 0 1 242.27 73.96
  L 256.76 73.84
  A 0.66 0.66 0.0 0 0 257.41 73.17
  L 257.37 70.25
  A 0.66 0.66 0.0 0 0 256.71 69.60
  L 242.33 69.50
  A 0.66 0.66 0.0 0 1 241.67 68.85
  L 241.50 57.51"
/>
<path stroke="#e6e6e6" vector-effect="non-scaling-stroke" d="
  M 303.71 57.20
  A 0.41 0.41 0.0 0 1 304.12 56.79
  L 320.05 56.77
  A 0.41 0.41 0.0 0 0 320.46 56.35
  L 320.34 52.85
  A 0.41 0.41 0.0 0 0 319.93 52.45
  L 298.77 52.37
  A 0.41 0.41 0.0 0 0 298.36 52.78
  L 298.36 92.59
  A 0.41 0.41 0.0 0 0 298.77 93.00
  L 320.91 93.00
  A 0.41 0.41 0.0 0 0 321.32 92.59
  L 321.35 88.97
  A 0.41 0.41 0.0 0 0 320.94 88.56
  L 304.12 88.56
  A 0.41 0.41 0.0 0 1 303.71 88.15
  L 303.71 74.34
  A 0.41 0.41 0.0 0 1 304.12 73.93
  L 319.08 73.82
  A 0.41 0.41 0.0 0 0 319.49 73.41
  L 319.51 69.97
  A 0.41 0.41 0.0 0 0 319.10 69.56
  L 304.14 69.51
  A 0.41 0.41 0.0 0 1 303.73 69.10
  L 303.71 57.20"
/>
<path stroke="#e6e6e6" vector-effect="non-scaling-stroke" d="
  M 347.49 127.25
  A 0.58 0.58 0.0 0 0 346.91 126.67
  L 7.97 126.67
  A 0.58 0.58 0.0 0 0 7.39 127.25
  L 7.39 128.19
  A 0.58 0.58 0.0 0 0 7.97 128.77
  L 346.91 128.77
  A 0.58 0.58 0.0 0 0 347.49 128.19
  L 347.49 127.25"
/>
<path stroke="#e6e6e6" vector-effect="non-scaling-stroke" d="
  M 78.2900 89.6400
  A 16.95 13.29 90.0 0 0 91.5800 72.6900
  A 16.95 13.29 90.0 0 0 78.2900 55.7400
  A 16.95 13.29 90.0 0 0 65.0000 72.6900
  A 16.95 13.29 90.0 0 0 78.2900 89.6400"
/>
<path stroke="#e6e6e6" vector-effect="non-scaling-stroke" d="
  M 158.8404 89.6400
  A 16.96 13.29 90.1 0 0 172.1600 72.7032
  A 16.96 13.29 90.1 0 0 158.8996 55.7200
  A 16.96 13.29 90.1 0 0 145.5800 72.6568
  A 16.96 13.29 90.1 0 0 158.8404 89.6400"
/>
<path stroke="#e6e6e6" vector-effect="non-scaling-stroke" d="
  M 271.35 56.97
  L 271.39 70.37
  A 0.90 0.90 0.0 0 0 272.30 71.26
  L 277.89 71.24
  A 7.89 7.14 -0.2 0 0 285.75 64.07
  L 285.75 63.15
  A 7.89 7.14 -0.2 0 0 277.83 56.04
  L 272.24 56.06
  A 0.90 0.90 0.0 0 0 271.35 56.97"
/>
</g>
<path fill="#ffffff" d="
  M 0.00 0.00
  L 355.00 0.00
  L 355.00 142.00
  L 0.00 142.00
  L 0.00 0.00
  Z
  M 347.36 19.28
  A 0.38 0.38 0.0 0 0 346.98 18.90
  L 7.94 18.90
  A 0.38 0.38 0.0 0 0 7.56 19.28
  L 7.56 20.10
  A 0.38 0.38 0.0 0 0 7.94 20.48
  L 346.98 20.48
  A 0.38 0.38 0.0 0 0 347.36 20.10
  L 347.36 19.28
  Z
  M 71.99 92.73
  C 78.49 94.99 86.61 93.35 91.46 88.10
  C 100.71 78.09 98.40 56.35 83.99 52.52
  C 64.97 47.48 55.32 67.10 61.45 82.56
  Q 64.44 90.11 71.99 92.73
  Z
  M 175.58 62.44
  C 171.24 52.19 159.30 48.89 149.92 54.10
  C 134.95 62.40 137.32 92.66 157.02 93.63
  Q 168.88 94.21 174.45 84.77
  C 178.21 78.41 178.45 69.20 175.58 62.44
  Z
  M 129.44 76.72
  L 129.39 87.39
  A 0.93 0.93 0.0 0 1 128.69 88.29
  Q 121.19 90.21 115.07 87.61
  C 105.52 83.56 104.10 68.82 110.46 61.50
  C 115.58 55.59 124.70 55.43 131.66 57.98
  Q 132.01 58.11 132.12 57.76
  L 133.28 54.07
  Q 133.39 53.71 133.03 53.60
  C 120.80 49.81 106.82 52.62 102.32 65.79
  C 100.84 70.11 100.91 76.00 102.26 80.25
  C 106.72 94.38 121.74 95.13 134.02 91.38
  Q 134.51 91.23 134.51 90.71
  L 134.54 72.34
  Q 134.54 71.75 133.96 71.75
  L 121.78 71.74
  Q 121.31 71.74 121.30 72.22
  L 121.26 75.76
  Q 121.26 76.00 121.51 76.00
  L 128.72 76.00
  Q 129.44 76.00 129.44 76.72
  Z
  M 283.94 73.33
  C 294.63 68.57 293.07 53.70 281.02 52.40
  Q 273.72 51.62 266.50 52.75
  Q 266.03 52.82 266.04 53.29
  L 266.12 92.81
  Q 266.12 92.99 266.31 92.99
  L 271.17 93.00
  Q 271.38 93.00 271.38 92.80
  L 271.32 76.07
  Q 271.32 75.54 271.85 75.50
  C 277.77 75.05 282.85 75.42 284.21 82.43
  Q 285.26 87.87 286.86 92.71
  Q 286.89 92.82 287.01 92.86
  Q 287.89 93.11 292.20 92.97
  Q 292.50 92.96 292.39 92.68
  Q 290.55 87.88 289.53 82.52
  C 288.86 79.01 287.28 75.52 283.93 73.88
  A 0.31 0.30 46.3 0 1 283.94 73.33
  Z
  M 41.62 88.55
  A 0.41 0.41 0.0 0 1 41.21 88.14
  L 41.22 52.76
  A 0.41 0.41 0.0 0 0 40.80 52.35
  L 36.30 52.41
  A 0.41 0.41 0.0 0 0 35.90 52.82
  L 35.88 92.59
  A 0.41 0.41 0.0 0 0 36.29 93.00
  L 58.18 93.00
  A 0.41 0.41 0.0 0 0 58.59 92.59
  L 58.60 88.96
  A 0.41 0.41 0.0 0 0 58.19 88.55
  L 41.62 88.55
  Z
  M 221.85 68.57
  A 0.92 0.92 0.0 0 1 220.93 69.45
  L 202.96 69.41
  A 0.71 0.71 0.0 0 1 202.25 68.71
  L 202.07 52.85
  Q 202.07 52.38 201.60 52.38
  L 197.37 52.37
  Q 196.87 52.37 196.87 52.88
  L 196.88 92.45
  Q 196.88 93.03 197.45 93.03
  L 201.56 93.02
  Q 202.15 93.02 202.15 92.44
  L 202.10 74.70
  A 0.70 0.69 -0.0 0 1 202.80 74.01
  L 220.76 73.99
  Q 222.02 73.99 222.02 75.26
  L 221.95 92.22
  Q 221.95 92.99 222.72 93.00
  L 226.27 93.04
  Q 227.15 93.05 227.18 92.18
  C 227.64 79.35 227.31 66.36 226.97 53.55
  Q 226.93 52.29 225.67 52.30
  L 223.16 52.32
  Q 221.88 52.33 221.92 53.60
  Q 222.18 61.39 221.85 68.57
  Z
  M 241.50 57.51
  A 0.66 0.66 0.0 0 1 242.16 56.84
  L 257.73 56.76
  A 0.66 0.66 0.0 0 0 258.38 56.10
  L 258.36 53.04
  A 0.66 0.66 0.0 0 0 257.70 52.39
  L 236.95 52.37
  A 0.66 0.66 0.0 0 0 236.29 53.03
  L 236.26 92.33
  A 0.66 0.66 0.0 0 0 236.92 92.99
  L 258.49 93.01
  A 0.66 0.66 0.0 0 0 259.15 92.34
  L 259.10 89.20
  A 0.66 0.66 0.0 0 0 258.44 88.55
  L 242.29 88.49
  A 0.66 0.66 0.0 0 1 241.63 87.83
  L 241.61 74.63
  A 0.66 0.66 0.0 0 1 242.27 73.96
  L 256.76 73.84
  A 0.66 0.66 0.0 0 0 257.41 73.17
  L 257.37 70.25
  A 0.66 0.66 0.0 0 0 256.71 69.60
  L 242.33 69.50
  A 0.66 0.66 0.0 0 1 241.67 68.85
  L 241.50 57.51
  Z
  M 303.71 57.20
  A 0.41 0.41 0.0 0 1 304.12 56.79
  L 320.05 56.77
  A 0.41 0.41 0.0 0 0 320.46 56.35
  L 320.34 52.85
  A 0.41 0.41 0.0 0 0 319.93 52.45
  L 298.77 52.37
  A 0.41 0.41 0.0 0 0 298.36 52.78
  L 298.36 92.59
  A 0.41 0.41 0.0 0 0 298.77 93.00
  L 320.91 93.00
  A 0.41 0.41 0.0 0 0 321.32 92.59
  L 321.35 88.97
  A 0.41 0.41 0.0 0 0 320.94 88.56
  L 304.12 88.56
  A 0.41 0.41 0.0 0 1 303.71 88.15
  L 303.71 74.34
  A 0.41 0.41 0.0 0 1 304.12 73.93
  L 319.08 73.82
  A 0.41 0.41 0.0 0 0 319.49 73.41
  L 319.51 69.97
  A 0.41 0.41 0.0 0 0 319.10 69.56
  L 304.14 69.51
  A 0.41 0.41 0.0 0 1 303.73 69.10
  L 303.71 57.20
  Z
  M 347.49 127.25
  A 0.58 0.58 0.0 0 0 346.91 126.67
  L 7.97 126.67
  A 0.58 0.58 0.0 0 0 7.39 127.25
  L 7.39 128.19
  A 0.58 0.58 0.0 0 0 7.97 128.77
  L 346.91 128.77
  A 0.58 0.58 0.0 0 0 347.49 128.19
  L 347.49 127.25
  Z"
/>
<path fill="#a5a6a9" d="
  M 347.36 20.10
  A 0.38 0.38 0.0 0 1 346.98 20.48
  L 7.94 20.48
  A 0.38 0.38 0.0 0 1 7.56 20.10
  L 7.56 19.28
  A 0.38 0.38 0.0 0 1 7.94 18.90
  L 346.98 18.90
  A 0.38 0.38 0.0 0 1 347.36 19.28
  L 347.36 20.10
  Z"
/>
<path fill="#cccccc" d="
  M 71.99 92.73
  Q 64.44 90.11 61.45 82.56
  C 55.32 67.10 64.97 47.48 83.99 52.52
  C 98.40 56.35 100.71 78.09 91.46 88.10
  C 86.61 93.35 78.49 94.99 71.99 92.73
  Z
  M 78.2900 89.6400
  A 16.95 13.29 90.0 0 0 91.5800 72.6900
  A 16.95 13.29 90.0 0 0 78.2900 55.7400
  A 16.95 13.29 90.0 0 0 65.0000 72.6900
  A 16.95 13.29 90.0 0 0 78.2900 89.6400
  Z"
/>
<path fill="#cccccc" d="
  M 175.58 62.44
  C 178.45 69.20 178.21 78.41 174.45 84.77
  Q 168.88 94.21 157.02 93.63
  C 137.32 92.66 134.95 62.40 149.92 54.10
  C 159.30 48.89 171.24 52.19 175.58 62.44
  Z
  M 158.8404 89.6400
  A 16.96 13.29 90.1 0 0 172.1600 72.7032
  A 16.96 13.29 90.1 0 0 158.8996 55.7200
  A 16.96 13.29 90.1 0 0 145.5800 72.6568
  A 16.96 13.29 90.1 0 0 158.8404 89.6400
  Z"
/>
<path fill="#cccccc" d="
  M 128.72 76.00
  L 121.51 76.00
  Q 121.26 76.00 121.26 75.76
  L 121.30 72.22
  Q 121.31 71.74 121.78 71.74
  L 133.96 71.75
  Q 134.54 71.75 134.54 72.34
  L 134.51 90.71
  Q 134.51 91.23 134.02 91.38
  C 121.74 95.13 106.72 94.38 102.26 80.25
  C 100.91 76.00 100.84 70.11 102.32 65.79
  C 106.82 52.62 120.80 49.81 133.03 53.60
  Q 133.39 53.71 133.28 54.07
  L 132.12 57.76
  Q 132.01 58.11 131.66 57.98
  C 124.70 55.43 115.58 55.59 110.46 61.50
  C 104.10 68.82 105.52 83.56 115.07 87.61
  Q 121.19 90.21 128.69 88.29
  A 0.93 0.93 0.0 0 0 129.39 87.39
  L 129.44 76.72
  Q 129.44 76.00 128.72 76.00
  Z"
/>
<path fill="#cccccc" d="
  M 283.94 73.33
  A 0.31 0.30 46.3 0 0 283.93 73.88
  C 287.28 75.52 288.86 79.01 289.53 82.52
  Q 290.55 87.88 292.39 92.68
  Q 292.50 92.96 292.20 92.97
  Q 287.89 93.11 287.01 92.86
  Q 286.89 92.82 286.86 92.71
  Q 285.26 87.87 284.21 82.43
  C 282.85 75.42 277.77 75.05 271.85 75.50
  Q 271.32 75.54 271.32 76.07
  L 271.38 92.80
  Q 271.38 93.00 271.17 93.00
  L 266.31 92.99
  Q 266.12 92.99 266.12 92.81
  L 266.04 53.29
  Q 266.03 52.82 266.50 52.75
  Q 273.72 51.62 281.02 52.40
  C 293.07 53.70 294.63 68.57 283.94 73.33
  Z
  M 271.35 56.97
  L 271.39 70.37
  A 0.90 0.90 0.0 0 0 272.30 71.26
  L 277.89 71.24
  A 7.89 7.14 -0.2 0 0 285.75 64.07
  L 285.75 63.15
  A 7.89 7.14 -0.2 0 0 277.83 56.04
  L 272.24 56.06
  A 0.90 0.90 0.0 0 0 271.35 56.97
  Z"
/>
<path fill="#cccccc" d="
  M 41.62 88.55
  L 58.19 88.55
  A 0.41 0.41 0.0 0 1 58.60 88.96
  L 58.59 92.59
  A 0.41 0.41 0.0 0 1 58.18 93.00
  L 36.29 93.00
  A 0.41 0.41 0.0 0 1 35.88 92.59
  L 35.90 52.82
  A 0.41 0.41 0.0 0 1 36.30 52.41
  L 40.80 52.35
  A 0.41 0.41 0.0 0 1 41.22 52.76
  L 41.21 88.14
  A 0.41 0.41 0.0 0 0 41.62 88.55
  Z"
/>
<path fill="#cccccc" d="
  M 221.85 68.57
  Q 222.18 61.39 221.92 53.60
  Q 221.88 52.33 223.16 52.32
  L 225.67 52.30
  Q 226.93 52.29 226.97 53.55
  C 227.31 66.36 227.64 79.35 227.18 92.18
  Q 227.15 93.05 226.27 93.04
  L 222.72 93.00
  Q 221.95 92.99 221.95 92.22
  L 222.02 75.26
  Q 222.02 73.99 220.76 73.99
  L 202.80 74.01
  A 0.70 0.69 -0.0 0 0 202.10 74.70
  L 202.15 92.44
  Q 202.15 93.02 201.56 93.02
  L 197.45 93.03
  Q 196.88 93.03 196.88 92.45
  L 196.87 52.88
  Q 196.87 52.37 197.37 52.37
  L 201.60 52.38
  Q 202.07 52.38 202.07 52.85
  L 202.25 68.71
  A 0.71 0.71 0.0 0 0 202.96 69.41
  L 220.93 69.45
  A 0.92 0.92 0.0 0 0 221.85 68.57
  Z"
/>
<path fill="#cccccc" d="
  M 241.50 57.51
  L 241.67 68.85
  A 0.66 0.66 0.0 0 0 242.33 69.50
  L 256.71 69.60
  A 0.66 0.66 0.0 0 1 257.37 70.25
  L 257.41 73.17
  A 0.66 0.66 0.0 0 1 256.76 73.84
  L 242.27 73.96
  A 0.66 0.66 0.0 0 0 241.61 74.63
  L 241.63 87.83
  A 0.66 0.66 0.0 0 0 242.29 88.49
  L 258.44 88.55
  A 0.66 0.66 0.0 0 1 259.10 89.20
  L 259.15 92.34
  A 0.66 0.66 0.0 0 1 258.49 93.01
  L 236.92 92.99
  A 0.66 0.66 0.0 0 1 236.26 92.33
  L 236.29 53.03
  A 0.66 0.66 0.0 0 1 236.95 52.37
  L 257.70 52.39
  A 0.66 0.66 0.0 0 1 258.36 53.04
  L 258.38 56.10
  A 0.66 0.66 0.0 0 1 257.73 56.76
  L 242.16 56.84
  A 0.66 0.66 0.0 0 0 241.50 57.51
  Z"
/>
<path fill="#cccccc" d="
  M 303.71 57.20
  L 303.73 69.10
  A 0.41 0.41 0.0 0 0 304.14 69.51
  L 319.10 69.56
  A 0.41 0.41 0.0 0 1 319.51 69.97
  L 319.49 73.41
  A 0.41 0.41 0.0 0 1 319.08 73.82
  L 304.12 73.93
  A 0.41 0.41 0.0 0 0 303.71 74.34
  L 303.71 88.15
  A 0.41 0.41 0.0 0 0 304.12 88.56
  L 320.94 88.56
  A 0.41 0.41 0.0 0 1 321.35 88.97
  L 321.32 92.59
  A 0.41 0.41 0.0 0 1 320.91 93.00
  L 298.77 93.00
  A 0.41 0.41 0.0 0 1 298.36 92.59
  L 298.36 52.78
  A 0.41 0.41 0.0 0 1 298.77 52.37
  L 319.93 52.45
  A 0.41 0.41 0.0 0 1 320.34 52.85
  L 320.46 56.35
  A 0.41 0.41 0.0 0 1 320.05 56.77
  L 304.12 56.79
  A 0.41 0.41 0.0 0 0 303.71 57.20
  Z"
/>
<path fill="#ffffff" d="
  M 78.2900 89.6400
  A 16.95 13.29 90.0 0 1 65.0000 72.6900
  A 16.95 13.29 90.0 0 1 78.2900 55.7400
  A 16.95 13.29 90.0 0 1 91.5800 72.6900
  A 16.95 13.29 90.0 0 1 78.2900 89.6400
  Z"
/>
<path fill="#ffffff" d="
  M 158.8404 89.6400
  A 16.96 13.29 90.1 0 1 145.5800 72.6568
  A 16.96 13.29 90.1 0 1 158.8996 55.7200
  A 16.96 13.29 90.1 0 1 172.1600 72.7032
  A 16.96 13.29 90.1 0 1 158.8404 89.6400
  Z"
/>
<path fill="#ffffff" d="
  M 271.35 56.97
  A 0.90 0.90 0.0 0 1 272.24 56.06
  L 277.83 56.04
  A 7.89 7.14 -0.2 0 1 285.75 63.15
  L 285.75 64.07
  A 7.89 7.14 -0.2 0 1 277.89 71.24
  L 272.30 71.26
  A 0.90 0.90 0.0 0 1 271.39 70.37
  L 271.35 56.97
  Z"
/>
<path fill="#cccccc" d="
  M 347.49 128.19
  A 0.58 0.58 0.0 0 1 346.91 128.77
  L 7.97 128.77
  A 0.58 0.58 0.0 0 1 7.39 128.19
  L 7.39 127.25
  A 0.58 0.58 0.0 0 1 7.97 126.67
  L 346.91 126.67
  A 0.58 0.58 0.0 0 1 347.49 127.25
  L 347.49 128.19
  Z"
/>
</svg>
